<svg width="236" height="562" fill="none" xmlns="http://www.w3.org/2000/svg"><g filter="url(#filter0_d)" fill="#7854F7"><circle cx="8.453" cy="4.445" r="4.126"/><circle cx="68.96" cy="4.444" r="4.126"/><circle cx="129.469" cy="4.444" r="4.126"/><circle cx="189.977" cy="4.444" r="4.126"/><circle cx="8.453" cy="64.953" r="4.126"/><circle cx="68.96" cy="64.953" r="4.126"/><circle cx="129.469" cy="64.953" r="4.126"/><circle cx="189.977" cy="64.953" r="4.126"/><circle cx="8.453" cy="125.461" r="4.126"/><circle cx="68.96" cy="125.461" r="4.126"/><circle cx="129.469" cy="125.461" r="4.126"/><circle cx="189.977" cy="125.461" r="4.126"/><circle cx="8.453" cy="185.969" r="4.126"/><circle cx="68.96" cy="185.969" r="4.126"/><circle cx="129.469" cy="185.969" r="4.126"/><circle cx="189.977" cy="185.969" r="4.126"/><circle cx="8.453" cy="246.477" r="4.126"/><circle cx="68.96" cy="246.477" r="4.126"/><circle cx="129.469" cy="246.477" r="4.126"/><circle cx="189.977" cy="246.477" r="4.126"/><circle cx="8.453" cy="306.985" r="4.126"/><circle cx="68.96" cy="306.985" r="4.126"/><circle cx="129.469" cy="306.985" r="4.126"/><circle cx="189.977" cy="306.985" r="4.126"/><circle cx="8.453" cy="367.494" r="4.126"/><circle cx="68.96" cy="367.494" r="4.126"/><circle cx="129.469" cy="367.494" r="4.126"/><circle cx="189.977" cy="367.494" r="4.126"/><circle cx="8.453" cy="428.002" r="4.126"/><circle cx="68.96" cy="428.002" r="4.126"/><circle cx="129.469" cy="428.002" r="4.126"/><circle cx="189.977" cy="428.002" r="4.126"/><circle cx="8.453" cy="488.51" r="4.126"/><circle cx="68.96" cy="488.51" r="4.126"/><circle cx="129.469" cy="488.51" r="4.126"/><circle cx="189.977" cy="488.51" r="4.126"/><circle cx="8.453" cy="549.018" r="4.126"/><circle cx="68.96" cy="549.018" r="4.126"/><circle cx="129.469" cy="549.018" r="4.126"/><circle cx="189.977" cy="549.018" r="4.126"/></g><defs><filter id="filter0_d" x=".327" y=".319" width="258.284" height="560.825" filterUnits="userSpaceOnUse" color-interpolation-filters="sRGB"><feFlood flood-opacity="0" result="BackgroundImageFix"/><feColorMatrix in="SourceAlpha" values="0 0 0 0 0 0 0 0 0 0 0 0 0 0 0 0 0 0 127 0"/><feOffset dy="4"/><feGaussianBlur stdDeviation="2"/><feColorMatrix values="0 0 0 0 0 0 0 0 0 0 0 0 0 0 0 0 0 0 0.25 0"/><feBlend in2="BackgroundImageFix" result="effect1_dropShadow"/><feBlend in="SourceGraphic" in2="effect1_dropShadow" result="shape"/></filter></defs></svg>