<svg width="332" height="55" fill="none" xmlns="http://www.w3.org/2000/svg"><g filter="url(#filter0_dd)" fill="#fff"><path d="M63.809 25.012h1.357c.853-.013 1.523-.238 2.012-.674.488-.436.732-1.026.732-1.768 0-1.666-.83-2.5-2.49-2.5-.781 0-1.406.225-1.875.674-.462.443-.693 1.032-.693 1.768h-1.807c0-1.127.41-2.06 1.23-2.803.827-.749 1.875-1.123 3.145-1.123 1.341 0 2.392.355 3.154 1.064.762.71 1.143 1.696 1.143 2.96 0 .618-.202 1.217-.606 1.796-.397.58-.94 1.013-1.63 1.3.78.247 1.383.657 1.806 1.23.43.573.645 1.272.645 2.1 0 1.275-.417 2.288-1.25 3.036-.834.749-1.918 1.123-3.252 1.123-1.335 0-2.422-.361-3.262-1.084-.833-.722-1.25-1.676-1.25-2.861h1.816c0 .749.244 1.348.733 1.797.488.45 1.142.674 1.963.674.872 0 1.54-.228 2.002-.684.462-.456.693-1.11.693-1.963 0-.827-.254-1.461-.762-1.904-.507-.443-1.24-.67-2.197-.684h-1.357v-1.474zm17.52 1.924c0 2.115-.362 3.688-1.085 4.716-.722 1.029-1.852 1.543-3.388 1.543-1.517 0-2.64-.501-3.37-1.504-.729-1.009-1.106-2.513-1.133-4.511v-2.412c0-2.09.362-3.643 1.085-4.659.722-1.015 1.855-1.523 3.398-1.523 1.53 0 2.656.492 3.379 1.475.722.976 1.094 2.486 1.113 4.53v2.345zm-1.807-2.471c0-1.53-.215-2.643-.645-3.34-.43-.703-1.11-1.055-2.041-1.055-.924 0-1.598.349-2.022 1.045-.423.697-.64 1.768-.654 3.213v2.89c0 1.537.222 2.673.664 3.409.45.73 1.127 1.094 2.032 1.094.891 0 1.552-.345 1.982-1.035.436-.69.664-1.778.684-3.262v-2.96zm8.828 3.164c0-1.621.384-2.923 1.152-3.906.768-.99 1.774-1.485 3.017-1.485 1.237 0 2.217.424 2.94 1.27V18h1.807v15h-1.66l-.088-1.133c-.723.886-1.729 1.328-3.018 1.328-1.224 0-2.223-.501-2.998-1.504-.768-1.002-1.152-2.31-1.152-3.925v-.137zm1.806.205c0 1.198.248 2.135.742 2.813.495.677 1.179 1.015 2.051 1.015 1.146 0 1.983-.514 2.51-1.543v-4.853c-.54-.996-1.37-1.494-2.49-1.494-.886 0-1.576.341-2.07 1.025-.495.683-.743 1.696-.743 3.037zM106.602 33c-.105-.208-.189-.58-.254-1.113-.84.872-1.843 1.308-3.008 1.308-1.042 0-1.898-.293-2.569-.879-.664-.592-.996-1.34-.996-2.246 0-1.1.417-1.953 1.25-2.558.84-.612 2.019-.918 3.536-.918h1.757v-.83c0-.632-.188-1.133-.566-1.504-.378-.378-.934-.567-1.67-.567-.644 0-1.185.163-1.621.489-.436.325-.654.719-.654 1.181H99.99c0-.527.186-1.035.557-1.523.377-.495.885-.886 1.523-1.172a5.16 5.16 0 012.119-.43c1.218 0 2.172.306 2.862.918.69.606 1.048 1.442 1.074 2.51v4.863c0 .97.124 1.742.371 2.315V33h-1.894zm-2.998-1.377c.566 0 1.103-.146 1.611-.44.508-.292.875-.673 1.103-1.142v-2.168h-1.416c-2.213 0-3.32.648-3.32 1.943 0 .567.189 1.01.566 1.329.378.319.863.478 1.456.478zm10.654-1.27l2.461-7.92h1.933l-4.248 12.198c-.657 1.758-1.702 2.637-3.134 2.637l-.342-.03-.674-.127v-1.464l.488.038c.612 0 1.087-.123 1.426-.37.345-.248.628-.7.85-1.358l.4-1.074-3.77-10.45h1.973l2.637 7.92zm13.34-7.92l.088 1.182c.748-.918 1.761-1.377 3.037-1.377 1.36 0 2.295.537 2.802 1.612.743-1.075 1.801-1.612 3.174-1.612 1.146 0 1.999.336 2.559 1.006.56.664.84 1.667.84 3.008V33h-2.832v-6.738c0-.6-.118-1.035-.352-1.309-.234-.28-.648-.42-1.24-.42-.847 0-1.432.404-1.758 1.211l.01 7.256h-2.822v-6.729c0-.611-.121-1.054-.362-1.328-.241-.273-.651-.41-1.23-.41-.801 0-1.38.332-1.739.996V33h-2.822V22.434h2.647zm14.238 5.186c0-1.048.202-1.982.605-2.803a4.44 4.44 0 011.739-1.904c.761-.45 1.644-.674 2.646-.674 1.426 0 2.588.436 3.486 1.309.905.872 1.41 2.057 1.514 3.555l.02.722c0 1.621-.453 2.923-1.358 3.906-.905.977-2.119 1.465-3.642 1.465-1.524 0-2.741-.488-3.653-1.465-.905-.976-1.357-2.304-1.357-3.984v-.127zm2.822.205c0 1.003.189 1.771.567 2.305.377.527.918.79 1.621.79.683 0 1.217-.26 1.601-.78.384-.528.576-1.367.576-2.52 0-.983-.192-1.745-.576-2.285-.384-.54-.924-.81-1.621-.81-.69 0-1.224.27-1.601.81-.378.534-.567 1.364-.567 2.49zm11.524-5.39l.088 1.22c.755-.944 1.767-1.416 3.037-1.416 1.119 0 1.953.33 2.5.987.547.657.826 1.64.839 2.949V33h-2.822v-6.758c0-.599-.13-1.032-.39-1.299-.261-.273-.694-.41-1.299-.41-.795 0-1.39.339-1.787 1.016V33h-2.823V22.434h2.657zm13.476 10.761c-1.549 0-2.812-.475-3.789-1.425-.97-.951-1.455-2.217-1.455-3.8v-.273c0-1.06.205-2.008.615-2.841.41-.84.99-1.485 1.739-1.934.755-.456 1.614-.684 2.578-.684 1.445 0 2.581.456 3.408 1.367.833.912 1.25 2.204 1.25 3.877v1.153h-6.729c.092.69.365 1.243.821 1.66.462.417 1.045.625 1.748.625 1.087 0 1.937-.394 2.549-1.182l1.386 1.553c-.423.599-.996 1.068-1.718 1.406-.723.332-1.524.498-2.403.498zm-.322-8.672c-.56 0-1.016.19-1.367.567-.345.377-.567.918-.664 1.62h3.925v-.224c-.013-.625-.182-1.106-.507-1.445-.326-.345-.788-.518-1.387-.518zm10.088 4.483l1.953-6.572h3.027l-4.248 12.207-.234.556c-.632 1.38-1.673 2.07-3.125 2.07a4.44 4.44 0 01-1.25-.185v-2.139l.43.01c.533 0 .931-.081 1.191-.244.267-.163.475-.433.625-.81l.332-.87-3.701-10.595h3.037l1.963 6.572zm20.596-1.192c0 1.693-.362 3.015-1.084 3.965-.723.944-1.732 1.416-3.028 1.416-1.146 0-2.06-.44-2.744-1.318L193.037 33h-2.539V18h2.822v5.38c.651-.76 1.507-1.142 2.569-1.142 1.289 0 2.298.476 3.027 1.426.736.944 1.104 2.275 1.104 3.994v.156zm-2.823-.205c0-1.067-.169-1.845-.508-2.334-.338-.494-.843-.742-1.513-.742-.899 0-1.517.368-1.856 1.104v4.17c.345.742.97 1.113 1.875 1.113.912 0 1.511-.45 1.797-1.348.137-.43.205-1.084.205-1.963zM207.891 33a3.123 3.123 0 01-.284-.947c-.683.762-1.572 1.142-2.666 1.142-1.035 0-1.894-.3-2.578-.898-.677-.6-1.015-1.354-1.015-2.266 0-1.12.413-1.979 1.24-2.578.833-.599 2.034-.902 3.603-.908h1.299v-.606c0-.488-.127-.878-.381-1.171-.247-.293-.641-.44-1.181-.44-.476 0-.85.114-1.123.342-.267.228-.401.54-.401.937h-2.822c0-.612.189-1.178.566-1.699.378-.52.912-.928 1.602-1.22.69-.3 1.465-.45 2.324-.45 1.302 0 2.334.33 3.096.987.768.65 1.152 1.569 1.152 2.753v4.58c.007 1.003.147 1.762.42 2.276V33h-2.851zm-2.334-1.963c.416 0 .8-.091 1.152-.273.352-.19.612-.44.781-.752v-1.817h-1.054c-1.413 0-2.165.489-2.256 1.465l-.01.166c0 .352.124.641.371.87.247.227.586.341 1.016.341zm11.328-.117c.521 0 .944-.143 1.269-.43.326-.286.495-.667.508-1.142h2.647a3.65 3.65 0 01-.586 1.972 3.909 3.909 0 01-1.582 1.387c-.664.326-1.4.488-2.207.488-1.511 0-2.702-.478-3.575-1.435-.872-.964-1.308-2.292-1.308-3.985v-.185c0-1.628.433-2.927 1.299-3.897.865-.97 2.054-1.455 3.564-1.455 1.322 0 2.38.378 3.174 1.133.801.749 1.208 1.748 1.221 2.998h-2.647c-.013-.547-.182-.99-.508-1.328-.325-.345-.755-.518-1.289-.518-.657 0-1.155.241-1.494.723-.332.475-.498 1.25-.498 2.324v.293c0 1.088.166 1.869.498 2.344.332.475.837.713 1.514.713zm9.873-2.158l-1.016 1.015V33h-2.822V18h2.822v8.31l.547-.703 2.705-3.173h3.389l-3.819 4.404L232.715 33h-3.242l-2.715-4.238zm11.416-1.123c0-1.621.384-2.927 1.152-3.916.775-.99 1.817-1.485 3.125-1.485 1.159 0 2.061.397 2.705 1.192l.117-.996h2.559v10.214c0 .925-.212 1.729-.635 2.412-.416.684-1.006 1.205-1.767 1.563-.762.358-1.654.537-2.676.537-.775 0-1.53-.156-2.266-.469-.735-.306-1.292-.703-1.67-1.191l1.25-1.719c.703.788 1.556 1.182 2.559 1.182.749 0 1.331-.202 1.748-.606.417-.397.625-.963.625-1.699v-.566c-.651.736-1.507 1.103-2.568 1.103-1.27 0-2.299-.495-3.086-1.484-.782-.996-1.172-2.314-1.172-3.955v-.117zm2.822.205c0 .957.192 1.709.576 2.256.384.54.912.81 1.582.81.86 0 1.475-.322 1.846-.967V25.5c-.378-.645-.986-.967-1.826-.967-.677 0-1.211.277-1.602.83-.384.554-.576 1.38-.576 2.48zm15.342 4.082c-.697.846-1.66 1.27-2.891 1.27-1.133 0-1.998-.326-2.597-.977-.593-.651-.896-1.605-.909-2.862v-6.923h2.823v6.826c0 1.1.501 1.65 1.504 1.65.957 0 1.614-.332 1.972-.996v-7.48h2.832V33h-2.656l-.078-1.074zM267.324 33a3.152 3.152 0 01-.283-.947c-.684.762-1.572 1.142-2.666 1.142-1.035 0-1.895-.3-2.578-.898-.677-.6-1.016-1.354-1.016-2.266 0-1.12.414-1.979 1.24-2.578.834-.599 2.035-.902 3.604-.908h1.299v-.606c0-.488-.127-.878-.381-1.171-.247-.293-.641-.44-1.182-.44-.475 0-.849.114-1.123.342-.267.228-.4.54-.4.937h-2.822c0-.612.188-1.178.566-1.699.378-.52.911-.928 1.602-1.22.69-.3 1.464-.45 2.324-.45 1.302 0 2.334.33 3.096.987.768.65 1.152 1.569 1.152 2.753v4.58c.006 1.003.146 1.762.42 2.276V33h-2.852zm-2.334-1.963c.417 0 .801-.091 1.153-.273.351-.19.612-.44.781-.752v-1.817h-1.055c-1.413 0-2.165.489-2.256 1.465l-.009.166c0 .352.123.641.371.87.247.227.586.341 1.015.341zm12.871-5.957a7.654 7.654 0 00-1.015-.078c-1.068 0-1.768.361-2.1 1.084V33h-2.822V22.434h2.666l.078 1.26c.566-.97 1.351-1.456 2.353-1.456.313 0 .606.043.879.127l-.039 2.715zm7.198 7.92a3.123 3.123 0 01-.284-.947c-.683.762-1.572 1.142-2.666 1.142-1.035 0-1.894-.3-2.578-.898-.677-.6-1.015-1.354-1.015-2.266 0-1.12.413-1.979 1.24-2.578.833-.599 2.034-.902 3.603-.908h1.299v-.606c0-.488-.127-.878-.381-1.171-.247-.293-.641-.44-1.181-.44-.476 0-.85.114-1.123.342-.267.228-.401.54-.401.937h-2.822c0-.612.189-1.178.566-1.699.378-.52.912-.928 1.602-1.22.69-.3 1.465-.45 2.324-.45 1.302 0 2.334.33 3.096.987.768.65 1.152 1.569 1.152 2.753v4.58c.007 1.003.147 1.762.42 2.276V33h-2.851zm-2.334-1.963c.416 0 .8-.091 1.152-.273.352-.19.612-.44.781-.752v-1.817h-1.054c-1.413 0-2.165.489-2.256 1.465l-.01.166c0 .352.124.641.371.87.247.227.586.341 1.016.341zm9.531-8.603l.088 1.22c.755-.944 1.767-1.416 3.037-1.416 1.12 0 1.953.33 2.5.987.547.657.827 1.64.84 2.949V33h-2.823v-6.758c0-.599-.13-1.032-.39-1.299-.261-.273-.694-.41-1.299-.41-.794 0-1.39.339-1.787 1.016V33H289.6V22.434h2.656zm11.992-2.598v2.598h1.807v2.07h-1.807v5.273c0 .391.075.67.225.84.149.17.436.254.859.254.313 0 .589-.023.83-.068v2.138a5.807 5.807 0 01-1.709.254c-1.979 0-2.988-.999-3.027-2.998v-5.693h-1.543v-2.07h1.543v-2.598h2.822zm8.242 13.36c-1.549 0-2.812-.476-3.789-1.426-.97-.951-1.455-2.217-1.455-3.8v-.273c0-1.06.205-2.008.615-2.841.41-.84.99-1.485 1.739-1.934.755-.456 1.614-.684 2.578-.684 1.445 0 2.581.456 3.408 1.367.833.912 1.25 2.204 1.25 3.877v1.153h-6.729c.092.69.365 1.243.821 1.66.462.417 1.045.625 1.748.625 1.087 0 1.937-.394 2.549-1.182l1.386 1.553c-.423.599-.996 1.068-1.718 1.406-.723.332-1.524.498-2.403.498zm-.322-8.673c-.56 0-1.016.19-1.367.567-.345.377-.567.918-.664 1.62h3.925v-.224c-.013-.625-.182-1.106-.507-1.445-.326-.345-.788-.518-1.387-.518zm11.143 8.672c-1.55 0-2.813-.475-3.79-1.425-.97-.951-1.455-2.217-1.455-3.8v-.273c0-1.06.205-2.008.616-2.841.41-.84.989-1.485 1.738-1.934.755-.456 1.615-.684 2.578-.684 1.445 0 2.581.456 3.408 1.367.834.912 1.25 2.204 1.25 3.877v1.153h-6.728c.091.69.364 1.243.82 1.66.462.417 1.045.625 1.748.625 1.087 0 1.937-.394 2.549-1.182l1.387 1.553c-.424.599-.996 1.068-1.719 1.406-.723.332-1.524.498-2.402.498zm-.323-8.672c-.56 0-1.015.19-1.367.567-.345.377-.566.918-.664 1.62h3.926v-.224c-.013-.625-.182-1.106-.508-1.445-.326-.345-.788-.518-1.387-.518zM24.5 6C13.178 6 4 15.178 4 26.5S13.178 47 24.5 47 45 37.822 45 26.5 35.822 6 24.5 6zm0 4.454c8.862 0 16.043 7.186 16.043 16.046S33.362 42.543 24.5 42.543c-8.862 0-16.043-7.184-16.043-16.043 0-8.86 7.181-16.046 16.043-16.046zm7.855 6.311L20.474 28.65l-3.854-3.853-3.781 3.778 3.853 3.854 3.807 3.806 3.778-3.78L36.161 20.57l-3.806-3.806z"/></g><defs><filter id="filter0_dd" x="0" y="6" width="331.656" height="49.001" filterUnits="userSpaceOnUse" color-interpolation-filters="sRGB"><feFlood flood-opacity="0" result="BackgroundImageFix"/><feColorMatrix in="SourceAlpha" values="0 0 0 0 0 0 0 0 0 0 0 0 0 0 0 0 0 0 127 0"/><feOffset dy="4"/><feGaussianBlur stdDeviation="2"/><feColorMatrix values="0 0 0 0 0 0 0 0 0 0 0 0 0 0 0 0 0 0 0.25 0"/><feBlend in2="BackgroundImageFix" result="effect1_dropShadow"/><feColorMatrix in="SourceAlpha" values="0 0 0 0 0 0 0 0 0 0 0 0 0 0 0 0 0 0 127 0"/><feOffset dy="4"/><feGaussianBlur stdDeviation="2"/><feColorMatrix values="0 0 0 0 0 0 0 0 0 0 0 0 0 0 0 0 0 0 0.25 0"/><feBlend in2="effect1_dropShadow" result="effect2_dropShadow"/><feBlend in="SourceGraphic" in2="effect2_dropShadow" result="shape"/></filter></defs></svg>