<svg width="342" height="53" fill="none" xmlns="http://www.w3.org/2000/svg"><path d="M64.643 29.27c0-.554-.196-.977-.586-1.27-.391-.3-1.094-.612-2.11-.938-1.015-.332-1.82-.657-2.412-.976-1.614-.872-2.422-2.048-2.422-3.525 0-.769.215-1.452.645-2.051.436-.606 1.058-1.078 1.865-1.416.814-.339 1.725-.508 2.734-.508 1.016 0 1.921.186 2.715.557.794.364 1.41.882 1.846 1.552.443.67.664 1.433.664 2.285h-2.93c0-.65-.205-1.155-.615-1.513-.41-.365-.986-.547-1.728-.547-.717 0-1.273.153-1.67.459a1.42 1.42 0 00-.596 1.191c0 .463.231.85.693 1.162.47.313 1.156.606 2.06.88 1.667.5 2.882 1.122 3.643 1.865.762.742 1.143 1.666 1.143 2.773 0 1.23-.465 2.197-1.396 2.9-.931.697-2.185 1.045-3.76 1.045-1.094 0-2.09-.198-2.989-.595-.898-.404-1.585-.954-2.06-1.65-.469-.697-.703-1.505-.703-2.423h2.94c0 1.57.937 2.354 2.812 2.354.696 0 1.24-.14 1.63-.42.391-.287.587-.684.587-1.191zm11.074 2.656c-.697.846-1.66 1.27-2.89 1.27-1.134 0-2-.326-2.599-.977-.592-.651-.895-1.605-.908-2.862v-6.923h2.823v6.826c0 1.1.5 1.65 1.504 1.65.956 0 1.614-.332 1.972-.996v-7.48h2.832V33h-2.656l-.078-1.074zm14.375-4.111c0 1.627-.371 2.932-1.114 3.915-.735.977-1.731 1.465-2.988 1.465-1.067 0-1.93-.37-2.588-1.113v4.98H80.58V22.434h2.617l.098 1.035c.683-.82 1.575-1.23 2.676-1.23 1.302 0 2.314.481 3.037 1.445.723.963 1.084 2.291 1.084 3.984v.146zm-2.823-.206c0-.983-.175-1.741-.527-2.275-.345-.534-.85-.8-1.514-.8-.885 0-1.494.338-1.826 1.015v4.326c.345.697.96 1.045 1.846 1.045 1.348 0 2.021-1.104 2.021-3.31zm14.092.205c0 1.628-.371 2.933-1.113 3.916-.736.977-1.732 1.465-2.988 1.465-1.068 0-1.93-.37-2.588-1.113v4.98H91.85V22.434h2.617l.097 1.035c.684-.82 1.576-1.23 2.676-1.23 1.302 0 2.315.481 3.037 1.445.723.963 1.084 2.291 1.084 3.984v.146zm-2.822-.205c0-.983-.176-1.741-.527-2.275-.345-.534-.85-.8-1.514-.8-.885 0-1.494.338-1.826 1.015v4.326c.345.697.96 1.045 1.846 1.045 1.347 0 2.021-1.104 2.021-3.31zm4.141.01c0-1.048.202-1.982.605-2.803a4.444 4.444 0 011.738-1.904c.762-.45 1.644-.674 2.647-.674 1.426 0 2.588.436 3.486 1.309.905.872 1.41 2.057 1.514 3.555l.019.722c0 1.621-.452 2.923-1.357 3.906-.905.977-2.119 1.465-3.643 1.465-1.523 0-2.74-.488-3.652-1.465-.905-.976-1.357-2.304-1.357-3.984v-.127zm2.822.205c0 1.003.189 1.771.566 2.305.378.527.918.79 1.621.79.684 0 1.218-.26 1.602-.78.384-.528.576-1.367.576-2.52 0-.983-.192-1.745-.576-2.285-.384-.54-.924-.81-1.621-.81-.69 0-1.224.27-1.602.81-.377.534-.566 1.364-.566 2.49zm14.863-2.744a7.654 7.654 0 00-1.015-.078c-1.068 0-1.768.361-2.1 1.084V33h-2.822V22.434h2.666l.078 1.26c.566-.97 1.351-1.456 2.353-1.456.313 0 .606.043.879.127l-.039 2.715zm5.235-5.244v2.598h1.806v2.07H125.6v5.273c0 .391.074.67.224.84.15.17.436.254.86.254.312 0 .589-.023.83-.068v2.138a5.812 5.812 0 01-1.709.254c-1.979 0-2.989-.999-3.028-2.998v-5.693h-1.543v-2.07h1.543v-2.598h2.823zm11.074.039v2.559h1.972v1.396h-1.972v6.553c0 .423.088.742.264.957.175.208.475.312.898.312.208 0 .495-.039.859-.117V33a5.24 5.24 0 01-1.386.195c-.808 0-1.416-.244-1.827-.732-.41-.488-.615-1.182-.615-2.08V23.83h-1.924v-1.396h1.924v-2.559h1.807zm8.476 13.32c-1.432 0-2.597-.468-3.496-1.406-.898-.944-1.347-2.204-1.347-3.78v-.331c0-1.048.198-1.983.595-2.803.404-.827.964-1.471 1.68-1.934a4.227 4.227 0 012.344-.703c1.373 0 2.441.453 3.203 1.358s1.142 2.2 1.142 3.886v.752h-7.158c.026 1.042.329 1.885.908 2.53.586.638 1.329.957 2.227.957.638 0 1.178-.13 1.621-.39.443-.261.83-.606 1.162-1.036l1.104.86c-.886 1.36-2.214 2.04-3.985 2.04zm-.224-9.472c-.729 0-1.341.267-1.836.8-.495.528-.801 1.27-.918 2.227h5.293v-.137c-.052-.918-.3-1.627-.742-2.129-.443-.507-1.042-.761-1.797-.761zM157.895 33c-.105-.208-.189-.58-.254-1.113-.84.872-1.843 1.308-3.008 1.308-1.042 0-1.898-.293-2.569-.879-.664-.592-.996-1.34-.996-2.246 0-1.1.417-1.953 1.25-2.558.84-.612 2.019-.918 3.536-.918h1.757v-.83c0-.632-.188-1.133-.566-1.504-.378-.378-.934-.567-1.67-.567-.645 0-1.185.163-1.621.489-.436.325-.654.719-.654 1.181h-1.817c0-.527.186-1.035.557-1.523.377-.495.885-.886 1.523-1.172a5.16 5.16 0 012.119-.43c1.218 0 2.172.306 2.862.918.69.606 1.048 1.442 1.074 2.51v4.863c0 .97.124 1.742.371 2.315V33h-1.894zm-2.999-1.377c.567 0 1.104-.146 1.612-.44.508-.292.875-.673 1.103-1.142v-2.168h-1.416c-2.213 0-3.32.648-3.32 1.943 0 .567.189 1.01.566 1.329.378.319.863.478 1.455.478zm9.053-9.19l.049 1.172c.775-.911 1.82-1.367 3.135-1.367 1.478 0 2.484.567 3.017 1.7a4.022 4.022 0 011.368-1.231c.566-.313 1.233-.469 2.002-.469 2.317 0 3.496 1.227 3.535 3.682V33h-1.807v-6.973c0-.755-.172-1.318-.518-1.69-.345-.377-.924-.566-1.738-.566-.67 0-1.227.202-1.67.606-.442.397-.7.934-.771 1.611V33h-1.817v-6.924c0-1.536-.752-2.305-2.255-2.305-1.185 0-1.996.505-2.432 1.514V33h-1.807V22.434h1.709zm21.992 7.764c0-.488-.185-.866-.556-1.133-.365-.273-1.006-.507-1.924-.703-.912-.195-1.637-.43-2.178-.703-.534-.273-.931-.599-1.191-.976-.254-.378-.381-.827-.381-1.348 0-.866.365-1.598 1.094-2.197.735-.6 1.673-.899 2.812-.899 1.198 0 2.168.31 2.91.928.749.619 1.123 1.41 1.123 2.373h-1.816c0-.495-.212-.921-.635-1.28-.416-.357-.944-.536-1.582-.536-.657 0-1.172.143-1.543.43a1.35 1.35 0 00-.556 1.122c0 .437.172.765.517.987.345.221.967.433 1.865.634.905.202 1.638.443 2.198.723.56.28.973.619 1.24 1.016.273.39.41.869.41 1.435 0 .944-.378 1.703-1.133 2.276-.755.566-1.735.85-2.939.85-.847 0-1.595-.15-2.246-.45-.651-.3-1.162-.716-1.534-1.25a3.07 3.07 0 01-.546-1.748h1.806c.033.605.274 1.087.723 1.445.456.352 1.055.528 1.797.528.683 0 1.23-.137 1.64-.41.417-.28.625-.651.625-1.114zM201.586 33c-.104-.208-.189-.58-.254-1.113-.84.872-1.842 1.308-3.008 1.308-1.041 0-1.898-.293-2.568-.879-.664-.592-.996-1.34-.996-2.246 0-1.1.416-1.953 1.25-2.558.84-.612 2.018-.918 3.535-.918h1.758v-.83c0-.632-.189-1.133-.567-1.504-.377-.378-.934-.567-1.67-.567-.644 0-1.184.163-1.621.489-.436.325-.654.719-.654 1.181h-1.816c0-.527.185-1.035.556-1.523.378-.495.886-.886 1.524-1.172a5.157 5.157 0 012.119-.43c1.217 0 2.171.306 2.861.918.69.606 1.048 1.442 1.074 2.51v4.863c0 .97.124 1.742.371 2.315V33h-1.894zm-2.998-1.377c.566 0 1.103-.146 1.611-.44.508-.292.876-.673 1.104-1.142v-2.168h-1.416c-2.214 0-3.321.648-3.321 1.943 0 .567.189 1.01.567 1.329.377.319.862.478 1.455.478zm11.592.098c.644 0 1.207-.196 1.689-.586.482-.39.749-.88.801-1.465h1.709c-.033.605-.241 1.182-.625 1.728a4.11 4.11 0 01-1.543 1.309 4.407 4.407 0 01-2.031.488c-1.439 0-2.585-.478-3.438-1.435-.846-.964-1.269-2.279-1.269-3.946v-.302c0-1.029.188-1.944.566-2.744.378-.801.918-1.423 1.621-1.866.71-.442 1.546-.664 2.51-.664 1.185 0 2.168.355 2.949 1.065.788.71 1.208 1.63 1.26 2.763h-1.709c-.052-.683-.313-1.243-.781-1.68-.463-.442-1.035-.663-1.719-.663-.918 0-1.631.332-2.139.996-.501.657-.752 1.611-.752 2.861v.342c0 1.217.251 2.155.752 2.812.502.658 1.218.987 2.149.987zm11.338-7.666a5.42 5.42 0 00-.889-.069c-1.185 0-1.989.505-2.412 1.514V33h-1.807V22.434h1.758l.029 1.22c.593-.944 1.433-1.416 2.52-1.416.351 0 .618.046.801.137v1.68zm.996 3.564c0-1.035.201-1.966.605-2.793.41-.827.977-1.465 1.699-1.914.73-.45 1.56-.674 2.491-.674 1.438 0 2.601.498 3.486 1.494.892.997 1.338 2.321 1.338 3.975v.127c0 1.029-.199 1.953-.596 2.773a4.455 4.455 0 01-1.689 1.905c-.73.455-1.569.683-2.52.683-1.432 0-2.594-.498-3.486-1.494-.886-.996-1.328-2.314-1.328-3.955v-.127zm1.816.215c0 1.172.27 2.113.811 2.822.547.71 1.276 1.065 2.187 1.065.918 0 1.647-.358 2.188-1.075.54-.722.81-1.731.81-3.027 0-1.159-.277-2.096-.83-2.812-.547-.723-1.276-1.084-2.187-1.084-.892 0-1.612.355-2.159 1.064-.546.71-.82 1.725-.82 3.047zm16.221 2.363c0-.488-.186-.866-.557-1.133-.364-.273-1.006-.507-1.924-.703-.911-.195-1.637-.43-2.177-.703-.534-.273-.931-.599-1.192-.976-.254-.378-.381-.827-.381-1.348 0-.866.365-1.598 1.094-2.197.736-.6 1.673-.899 2.813-.899 1.197 0 2.168.31 2.91.928.748.619 1.123 1.41 1.123 2.373h-1.817c0-.495-.211-.921-.634-1.28-.417-.357-.944-.536-1.582-.536-.658 0-1.172.143-1.543.43a1.35 1.35 0 00-.557 1.122c0 .437.172.765.518.987.345.221.966.433 1.865.634.905.202 1.637.443 2.197.723.56.28.973.619 1.24 1.016.274.39.41.869.41 1.435 0 .944-.377 1.703-1.132 2.276-.756.566-1.735.85-2.94.85-.846 0-1.595-.15-2.246-.45-.651-.3-1.162-.716-1.533-1.25a3.063 3.063 0 01-.547-1.748h1.807c.032.605.273 1.087.722 1.445.456.352 1.055.528 1.797.528.684 0 1.231-.137 1.641-.41.416-.28.625-.651.625-1.114zm10.312 0c0-.488-.185-.866-.556-1.133-.365-.273-1.006-.507-1.924-.703-.912-.195-1.638-.43-2.178-.703-.534-.273-.931-.599-1.191-.976-.254-.378-.381-.827-.381-1.348 0-.866.364-1.598 1.094-2.197.735-.6 1.673-.899 2.812-.899 1.198 0 2.168.31 2.91.928.749.619 1.123 1.41 1.123 2.373h-1.816c0-.495-.212-.921-.635-1.28-.417-.357-.944-.536-1.582-.536-.657 0-1.172.143-1.543.43a1.35 1.35 0 00-.557 1.122c0 .437.173.765.518.987.345.221.967.433 1.865.634.905.202 1.638.443 2.198.723.559.28.973.619 1.24 1.016.273.39.41.869.41 1.435 0 .944-.378 1.703-1.133 2.276-.755.566-1.735.85-2.939.85-.847 0-1.595-.15-2.246-.45-.651-.3-1.163-.716-1.534-1.25a3.07 3.07 0 01-.547-1.748h1.807c.033.605.274 1.087.723 1.445.456.352 1.054.528 1.797.528.683 0 1.23-.137 1.64-.41.417-.28.625-.651.625-1.114zm11.573-10.322v2.559h1.972v1.396h-1.972v6.553c0 .423.087.742.263.957.176.208.475.312.899.312.208 0 .494-.039.859-.117V33c-.475.13-.937.195-1.387.195-.807 0-1.416-.244-1.826-.732-.41-.488-.615-1.182-.615-2.08V23.83h-1.924v-1.396h1.924v-2.559h1.807zm5.898 3.838c.801-.983 1.842-1.475 3.125-1.475 2.233 0 3.359 1.26 3.379 3.78V33h-1.807v-6.992c-.006-.762-.182-1.325-.527-1.69-.339-.364-.869-.547-1.592-.547-.586 0-1.1.157-1.543.47a3.177 3.177 0 00-1.035 1.23V33h-1.807V18h1.807v5.713zm13.594 9.482c-1.433 0-2.598-.468-3.496-1.406-.899-.944-1.348-2.204-1.348-3.78v-.331c0-1.048.199-1.983.596-2.803.403-.827.963-1.471 1.679-1.934a4.227 4.227 0 012.344-.703c1.374 0 2.442.453 3.203 1.358.762.905 1.143 2.2 1.143 3.886v.752h-7.158c.026 1.042.328 1.885.908 2.53.586.638 1.328.957 2.226.957.638 0 1.179-.13 1.621-.39a4.08 4.08 0 001.163-1.036l1.103.86c-.885 1.36-2.213 2.04-3.984 2.04zm-.225-9.472c-.729 0-1.341.267-1.836.8-.495.528-.801 1.27-.918 2.227h5.293v-.137c-.052-.918-.299-1.627-.742-2.129-.443-.507-1.042-.761-1.797-.761zm20.762 6.787l2.031-8.076h1.807L303.227 33h-1.465l-2.569-8.008-2.5 8.008h-1.464l-3.067-10.566h1.797l2.08 7.91 2.461-7.91h1.455l2.51 8.076zm5.205-2.89c0-1.036.202-1.967.605-2.794.411-.827.977-1.465 1.7-1.914.729-.45 1.559-.674 2.49-.674 1.439 0 2.601.498 3.486 1.494.892.997 1.338 2.321 1.338 3.975v.127c0 1.029-.199 1.953-.596 2.773a4.443 4.443 0 01-1.689 1.905c-.729.455-1.569.683-2.52.683-1.432 0-2.594-.498-3.486-1.494-.885-.996-1.328-2.314-1.328-3.955v-.127zm1.816.214c0 1.172.271 2.113.811 2.822.547.71 1.276 1.065 2.187 1.065.918 0 1.648-.358 2.188-1.075.54-.722.81-1.731.81-3.027 0-1.159-.276-2.096-.83-2.812-.547-.723-1.276-1.084-2.187-1.084-.892 0-1.611.355-2.158 1.064-.547.71-.821 1.725-.821 3.047zm15.176-3.78a5.411 5.411 0 00-.889-.068c-1.184 0-1.988.505-2.412 1.514V33h-1.806V22.434h1.757l.03 1.22c.592-.944 1.432-1.416 2.519-1.416.352 0 .619.046.801.137v1.68zM328.295 33h-1.807V18h1.807v15zm2.461-5.371c0-1.621.384-2.923 1.152-3.906.768-.99 1.774-1.485 3.018-1.485 1.237 0 2.217.424 2.939 1.27V18h1.807v15h-1.66l-.088-1.133c-.723.886-1.729 1.328-3.018 1.328-1.224 0-2.223-.501-2.998-1.504-.768-1.002-1.152-2.31-1.152-3.925v-.137zm1.806.205c0 1.198.248 2.135.743 2.813.494.677 1.178 1.015 2.05 1.015 1.146 0 1.983-.514 2.51-1.543v-4.853c-.54-.996-1.37-1.494-2.49-1.494-.885 0-1.576.341-2.07 1.025-.495.683-.743 1.696-.743 3.037z" fill="#fff"/><path fill-rule="evenodd" clip-rule="evenodd" d="M12.52 7.61A20.436 20.436 0 0120.5 6c2.959 0 5.772.626 8.312 1.755A20.575 20.575 0 0139.39 18.52 20.436 20.436 0 0141 26.5c0 2.896-.6 5.652-1.684 8.15a20.573 20.573 0 01-10.837 10.739A20.435 20.435 0 0120.5 47c-2.896 0-5.652-.6-8.15-1.684A20.574 20.574 0 011.611 34.48 20.436 20.436 0 010 26.5c0-3.056.67-5.957 1.869-8.563A20.576 20.576 0 0112.52 7.61zm-7 13.136a16.095 16.095 0 019.227-9.23l2.268 5.39a10.25 10.25 0 00-6.109 6.088l-5.387-2.248zm9.21 20.728a16.093 16.093 0 01-9.21-9.22l5.386-2.228a10.183 10.183 0 006.088 6.068l-2.264 5.38zm20.744-9.204a16.093 16.093 0 01-9.202 9.204l-2.225-5.38a10.204 10.204 0 006.047-6.089l5.38 2.265zM26.28 11.527a16.097 16.097 0 019.194 9.2l-5.38 2.226a10.216 10.216 0 00-6.047-6.027l2.233-5.4zM14.35 26.5a6.142 6.142 0 006.15 6.15 6.142 6.142 0 006.15-6.15 6.142 6.142 0 00-6.15-6.15 6.142 6.142 0 00-6.15 6.15z" fill="#fff"/></svg>