<svg width="324" height="53" fill="none" xmlns="http://www.w3.org/2000/svg"><path d="M64.643 29.27c0-.554-.196-.977-.586-1.27-.391-.3-1.094-.612-2.11-.938-1.015-.332-1.82-.657-2.412-.976-1.614-.872-2.422-2.048-2.422-3.525 0-.769.215-1.452.645-2.051.436-.606 1.058-1.078 1.865-1.416.814-.339 1.725-.508 2.734-.508 1.016 0 1.921.186 2.715.557.794.364 1.41.882 1.846 1.552.443.67.664 1.433.664 2.285h-2.93c0-.65-.205-1.155-.615-1.513-.41-.365-.986-.547-1.728-.547-.717 0-1.273.153-1.67.459a1.42 1.42 0 00-.596 1.191c0 .463.231.85.693 1.162.47.313 1.156.606 2.06.88 1.667.5 2.882 1.122 3.643 1.865.762.742 1.143 1.666 1.143 2.773 0 1.23-.465 2.197-1.396 2.9-.931.697-2.185 1.045-3.76 1.045-1.094 0-2.09-.198-2.989-.595-.898-.404-1.585-.954-2.06-1.65-.469-.697-.703-1.505-.703-2.423h2.94c0 1.57.937 2.354 2.812 2.354.696 0 1.24-.14 1.63-.42.391-.287.587-.684.587-1.191zM75.512 33a3.135 3.135 0 01-.284-.947c-.683.762-1.572 1.142-2.665 1.142-1.036 0-1.895-.3-2.579-.898-.677-.6-1.015-1.354-1.015-2.266 0-1.12.413-1.979 1.24-2.578.833-.599 2.034-.902 3.603-.908h1.3v-.606c0-.488-.128-.878-.381-1.171-.248-.293-.642-.44-1.182-.44-.475 0-.85.114-1.123.342-.267.228-.4.54-.4.937h-2.823c0-.612.189-1.178.566-1.699.378-.52.912-.928 1.602-1.22.69-.3 1.465-.45 2.324-.45 1.302 0 2.334.33 3.096.987.768.65 1.152 1.569 1.152 2.753v4.58c.007 1.003.147 1.762.42 2.276V33h-2.851zm-2.334-1.963c.416 0 .8-.091 1.152-.273.352-.19.612-.44.781-.752v-1.817h-1.054c-1.413 0-2.165.489-2.256 1.465l-.01.166c0 .352.124.641.371.87.247.227.586.341 1.016.341zM80.883 33v-8.496H79.31v-2.07h1.572v-.899c0-1.185.338-2.103 1.015-2.754.684-.657 1.638-.986 2.862-.986.39 0 .869.065 1.435.195l-.029 2.188a3.598 3.598 0 00-.86-.088c-1.06 0-1.591.498-1.591 1.494v.85h2.1v2.07h-2.1V33h-2.832zm11.025.195c-1.55 0-2.812-.475-3.789-1.425-.97-.951-1.455-2.217-1.455-3.8v-.273c0-1.06.205-2.008.615-2.841.41-.84.99-1.485 1.739-1.934.755-.456 1.614-.684 2.578-.684 1.445 0 2.581.456 3.408 1.367.833.912 1.25 2.204 1.25 3.877v1.153h-6.729c.091.69.365 1.243.82 1.66.463.417 1.046.625 1.749.625 1.087 0 1.937-.394 2.549-1.182l1.386 1.553c-.423.599-.996 1.068-1.718 1.406-.723.332-1.524.498-2.403.498zm-.322-8.672c-.56 0-1.016.19-1.367.567-.345.377-.567.918-.664 1.62h3.925v-.224c-.013-.625-.182-1.106-.507-1.445-.326-.345-.788-.518-1.387-.518zm10.869 4.649c0-.658.182-1.266.547-1.826.371-.56 1.048-1.182 2.031-1.866a10.087 10.087 0 01-.996-1.591 3.565 3.565 0 01-.361-1.563c0-1.107.348-2.005 1.045-2.695.703-.697 1.647-1.045 2.832-1.045 1.061 0 1.93.316 2.607.947.684.632 1.026 1.42 1.026 2.363 0 1.133-.573 2.133-1.719 2.998l-1.094.792 2.451 2.851c.384-.755.576-1.588.576-2.5h2.403c0 1.85-.427 3.347-1.28 4.492L114.652 33h-3.203l-.732-.84c-1.048.69-2.253 1.035-3.613 1.035-1.407 0-2.533-.367-3.379-1.103-.847-.742-1.27-1.716-1.27-2.92zm4.785 1.758c.677 0 1.319-.19 1.924-.567l-2.803-3.242-.205.147c-.579.494-.869 1.077-.869 1.748 0 .566.179 1.028.537 1.386.365.352.837.528 1.416.528zm-1.035-8.643c0 .488.287 1.104.859 1.846l.752-.498c.385-.248.648-.489.791-.723.15-.234.225-.514.225-.84 0-.325-.12-.608-.361-.85-.241-.24-.55-.36-.928-.36-.404 0-.729.13-.977.39-.24.26-.361.605-.361 1.035zm22.305 6.983c0-.554-.196-.977-.586-1.27-.391-.3-1.094-.612-2.11-.938-1.015-.332-1.819-.657-2.412-.976-1.614-.872-2.422-2.048-2.422-3.525 0-.769.215-1.452.645-2.051.436-.606 1.058-1.078 1.865-1.416.814-.339 1.725-.508 2.735-.508 1.015 0 1.92.186 2.714.557.795.364 1.41.882 1.846 1.552.443.67.664 1.433.664 2.285h-2.929c0-.65-.206-1.155-.616-1.513-.41-.365-.986-.547-1.728-.547-.716 0-1.273.153-1.67.459a1.42 1.42 0 00-.596 1.191c0 .463.231.85.694 1.162.468.313 1.155.606 2.06.88 1.667.5 2.881 1.122 3.643 1.865.761.742 1.142 1.666 1.142 2.773 0 1.23-.465 2.197-1.396 2.9-.931.697-2.185 1.045-3.76 1.045-1.094 0-2.09-.198-2.988-.595-.899-.404-1.586-.954-2.061-1.65-.469-.697-.703-1.505-.703-2.423h2.939c0 1.57.938 2.354 2.813 2.354.697 0 1.24-.14 1.631-.42.39-.287.586-.684.586-1.191zm9.609 3.925c-1.549 0-2.812-.475-3.789-1.425-.97-.951-1.455-2.217-1.455-3.8v-.273c0-1.06.205-2.008.615-2.841.41-.84.99-1.485 1.739-1.934.755-.456 1.614-.684 2.578-.684 1.445 0 2.581.456 3.408 1.367.833.912 1.25 2.204 1.25 3.877v1.153h-6.729c.091.69.365 1.243.821 1.66.462.417 1.045.625 1.748.625 1.087 0 1.937-.394 2.549-1.182l1.386 1.553c-.423.599-.996 1.068-1.719 1.406-.722.332-1.523.498-2.402.498zm-.322-8.672c-.56 0-1.016.19-1.367.567-.345.377-.567.918-.664 1.62h3.925v-.224c-.013-.625-.182-1.106-.507-1.445-.326-.345-.788-.518-1.387-.518zm10.674 6.397c.521 0 .944-.143 1.269-.43.326-.286.495-.667.508-1.142h2.647a3.65 3.65 0 01-.586 1.972 3.915 3.915 0 01-1.582 1.387c-.665.326-1.4.488-2.207.488-1.511 0-2.702-.478-3.575-1.435-.872-.964-1.308-2.292-1.308-3.985v-.185c0-1.628.433-2.927 1.299-3.897.865-.97 2.054-1.455 3.564-1.455 1.322 0 2.38.378 3.174 1.133.801.749 1.208 1.748 1.221 2.998h-2.647c-.013-.547-.182-.99-.508-1.328-.325-.345-.755-.518-1.289-.518-.657 0-1.155.241-1.494.723-.332.475-.498 1.25-.498 2.324v.293c0 1.088.166 1.869.498 2.344.332.475.837.713 1.514.713zm12.363 1.006c-.697.846-1.66 1.27-2.891 1.27-1.132 0-1.998-.326-2.597-.977-.593-.651-.895-1.605-.908-2.862v-6.923h2.822v6.826c0 1.1.501 1.65 1.504 1.65.957 0 1.614-.332 1.972-.996v-7.48h2.832V33h-2.656l-.078-1.074zm10.801-6.846a7.667 7.667 0 00-1.016-.078c-1.068 0-1.767.361-2.099 1.084V33h-2.823V22.434h2.666l.078 1.26c.567-.97 1.351-1.456 2.354-1.456.312 0 .605.043.879.127l-.039 2.715zm6.035 8.115c-1.55 0-2.813-.475-3.789-1.425-.97-.951-1.455-2.217-1.455-3.8v-.273c0-1.06.205-2.008.615-2.841.41-.84.99-1.485 1.738-1.934.756-.456 1.615-.684 2.578-.684 1.446 0 2.582.456 3.409 1.367.833.912 1.25 2.204 1.25 3.877v1.153h-6.729c.091.69.365 1.243.82 1.66.463.417 1.045.625 1.748.625 1.088 0 1.937-.394 2.549-1.182l1.387 1.553c-.423.599-.996 1.068-1.719 1.406-.722.332-1.523.498-2.402.498zm-.322-8.672c-.56 0-1.016.19-1.368.567-.345.377-.566.918-.664 1.62h3.926v-.224c-.013-.625-.182-1.106-.508-1.445-.325-.345-.787-.518-1.386-.518zm11.045 3.096c0-1.035.201-1.966.605-2.793.41-.827.977-1.465 1.699-1.914.729-.45 1.56-.674 2.491-.674 1.438 0 2.6.498 3.486 1.494.892.997 1.338 2.321 1.338 3.975v.127c0 1.029-.199 1.953-.596 2.773a4.455 4.455 0 01-1.689 1.905c-.73.455-1.569.683-2.52.683-1.432 0-2.594-.498-3.486-1.494-.886-.996-1.328-2.314-1.328-3.955v-.127zm1.816.215c0 1.172.27 2.113.811 2.822.546.71 1.276 1.065 2.187 1.065.918 0 1.647-.358 2.188-1.075.54-.722.81-1.731.81-3.027 0-1.159-.277-2.096-.83-2.812-.547-.723-1.276-1.084-2.187-1.084-.892 0-1.612.355-2.159 1.064-.547.71-.82 1.725-.82 3.047zm11.777-5.4l.059 1.328c.807-1.016 1.862-1.524 3.164-1.524 2.233 0 3.359 1.26 3.379 3.78V33h-1.807v-6.992c-.006-.762-.182-1.325-.527-1.69-.339-.364-.869-.547-1.592-.547-.586 0-1.1.157-1.543.47a3.177 3.177 0 00-1.035 1.23V33h-1.807V22.434h1.709zM213.275 33h-1.806V18h1.806v15zm4.864 0h-1.807V22.434h1.807V33zm-1.953-13.37c0-.292.087-.54.263-.741.183-.202.449-.303.801-.303.352 0 .618.1.801.303.182.201.273.449.273.742s-.091.537-.273.732c-.183.196-.449.293-.801.293-.352 0-.618-.097-.801-.293a1.053 1.053 0 01-.263-.732zm6.562 2.804l.059 1.328c.807-1.016 1.862-1.524 3.164-1.524 2.233 0 3.359 1.26 3.379 3.78V33h-1.807v-6.992c-.007-.762-.182-1.325-.527-1.69-.339-.364-.87-.547-1.592-.547-.586 0-1.1.157-1.543.47a3.177 3.177 0 00-1.035 1.23V33h-1.807V22.434h1.709zm13.711 10.761c-1.432 0-2.598-.468-3.496-1.406-.899-.944-1.348-2.204-1.348-3.78v-.331c0-1.048.199-1.983.596-2.803.404-.827.963-1.471 1.68-1.934a4.224 4.224 0 012.343-.703c1.374 0 2.442.453 3.204 1.358.761.905 1.142 2.2 1.142 3.886v.752h-7.158c.026 1.042.329 1.885.908 2.53.586.638 1.328.957 2.227.957.638 0 1.178-.13 1.621-.39.442-.261.83-.606 1.162-1.036l1.103.86c-.885 1.36-2.213 2.04-3.984 2.04zm-.225-9.472c-.729 0-1.341.267-1.836.8-.494.528-.8 1.27-.918 2.227h5.293v-.137c-.052-.918-.299-1.627-.742-2.129-.442-.507-1.041-.761-1.797-.761zm20.332 4.111c0 1.608-.367 2.904-1.103 3.887-.736.983-1.732 1.474-2.988 1.474-1.283 0-2.292-.407-3.028-1.22v5.087h-1.806V22.434h1.65l.088 1.171c.736-.911 1.758-1.367 3.066-1.367 1.27 0 2.272.479 3.008 1.436.742.957 1.113 2.288 1.113 3.994v.166zm-1.806-.205c0-1.192-.254-2.132-.762-2.822s-1.204-1.035-2.09-1.035c-1.094 0-1.914.485-2.461 1.455v5.048c.541.964 1.367 1.446 2.481 1.446.866 0 1.552-.342 2.06-1.026.515-.69.772-1.712.772-3.066zM265.395 33c-.105-.208-.189-.58-.254-1.113-.84.872-1.843 1.308-3.008 1.308-1.042 0-1.898-.293-2.569-.879-.664-.592-.996-1.34-.996-2.246 0-1.1.417-1.953 1.25-2.558.84-.612 2.019-.918 3.536-.918h1.757v-.83c0-.632-.188-1.133-.566-1.504-.378-.378-.934-.567-1.67-.567-.645 0-1.185.163-1.621.489-.436.325-.654.719-.654 1.181h-1.817c0-.527.186-1.035.557-1.523.377-.495.885-.886 1.523-1.172a5.16 5.16 0 012.119-.43c1.218 0 2.172.306 2.862.918.69.606 1.048 1.442 1.074 2.51v4.863c0 .97.124 1.742.371 2.315V33h-1.894zm-2.999-1.377c.567 0 1.104-.146 1.612-.44.508-.292.875-.673 1.103-1.142v-2.168h-1.416c-2.213 0-3.32.648-3.32 1.943 0 .567.189 1.01.566 1.329.378.319.863.478 1.455.478zm10.655-1.27l2.461-7.92h1.933l-4.248 12.198c-.657 1.758-1.702 2.637-3.135 2.637l-.341-.03-.674-.127v-1.464l.488.038c.612 0 1.087-.123 1.426-.37.345-.248.628-.7.85-1.358l.4-1.074-3.77-10.45h1.973l2.637 7.92zm7.715-7.92l.048 1.172c.775-.911 1.82-1.367 3.135-1.367 1.478 0 2.484.567 3.018 1.7a4.01 4.01 0 011.367-1.231c.566-.313 1.234-.469 2.002-.469 2.318 0 3.496 1.227 3.535 3.682V33h-1.807v-6.973c0-.755-.172-1.318-.517-1.69-.345-.377-.925-.566-1.738-.566-.671 0-1.228.202-1.67.606-.443.397-.7.934-.772 1.611V33h-1.816v-6.924c0-1.536-.752-2.305-2.256-2.305-1.185 0-1.996.505-2.432 1.514V33h-1.806V22.434h1.709zm20.224 10.762c-1.432 0-2.597-.468-3.496-1.406-.898-.944-1.348-2.204-1.348-3.78v-.331c0-1.048.199-1.983.596-2.803.404-.827.964-1.471 1.68-1.934a4.227 4.227 0 012.344-.703c1.373 0 2.441.453 3.203 1.358.761.905 1.142 2.2 1.142 3.886v.752h-7.158c.026 1.042.329 1.885.908 2.53.586.638 1.328.957 2.227.957.638 0 1.178-.13 1.621-.39.443-.261.83-.606 1.162-1.036l1.104.86c-.886 1.36-2.214 2.04-3.985 2.04zm-.224-9.472a2.4 2.4 0 00-1.836.8c-.495.528-.801 1.27-.918 2.227h5.293v-.137c-.052-.918-.3-1.627-.743-2.129-.442-.507-1.041-.761-1.796-.761zm8.154-1.29l.059 1.329c.807-1.016 1.861-1.524 3.164-1.524 2.233 0 3.359 1.26 3.378 3.78V33h-1.806v-6.992c-.007-.762-.182-1.325-.527-1.69-.339-.364-.87-.547-1.592-.547-.586 0-1.101.157-1.543.47a3.177 3.177 0 00-1.035 1.23V33h-1.807V22.434h1.709zm11.777-2.558v2.559h1.973v1.396h-1.973v6.553c0 .423.088.742.264.957.176.208.475.312.898.312.209 0 .495-.039.86-.117V33c-.476.13-.938.195-1.387.195-.807 0-1.416-.244-1.826-.732-.41-.488-.615-1.182-.615-2.08V23.83h-1.924v-1.396h1.924v-2.559h1.806z" fill="#fff"/><path fill-rule="evenodd" clip-rule="evenodd" d="M0 26.5C0 15.178 9.178 6 20.5 6S41 15.178 41 26.5 31.822 47 20.5 47 0 37.822 0 26.5zm36.543 0c0-8.86-7.181-16.046-16.043-16.046-8.862 0-16.043 7.186-16.043 16.046S11.638 42.543 20.5 42.543c8.862 0 16.043-7.184 16.043-16.043zm-10.111-5.877v3.198c1.27 0 2.542 1.28 2.542 2.772v7.462c0 1.28-1.271 2.559-2.754 2.559H14.57c-1.272 0-2.543-1.28-2.543-2.772V26.38c0-1.28 1.271-2.559 2.542-2.559v-3.198c0-2.985 2.966-5.33 5.931-5.33 2.966 0 5.932 2.345 5.932 5.33zm-9.109 3.198h6.355v-3.198c0-1.706-1.483-2.771-3.178-2.771-1.694 0-3.177 1.066-3.177 2.771v3.198z" fill="#fff"/></svg>