<svg width="184" height="37" fill="none" xmlns="http://www.w3.org/2000/svg"><path fill-rule="evenodd" clip-rule="evenodd" d="M56.364 0H5.77C2.567 0-.025 2.617 0 5.794v19.313a5.791 5.791 0 005.794 5.794h23.964L40.71 37l-2.49-6.099h18.144a5.791 5.791 0 005.794-5.794V5.794A5.791 5.791 0 0056.364 0zM4.702 4.473c-.712.05-1.246.305-1.601.788-.356.457-.483 1.041-.407 1.702 1.5 9.53 2.897 15.96 4.193 19.288.508 1.22 1.093 1.805 1.779 1.754 1.067-.076 2.338-1.55 3.837-4.422.4-.824.91-1.857 1.53-3.1a776.928 776.928 0 012.13-4.219c1.372 4.803 3.252 8.412 5.616 10.826.66.686 1.346.991 2.007.94.584-.05 1.042-.356 1.347-.915.254-.482.356-1.041.305-1.677-.153-2.313.076-5.54.711-9.682.661-4.27 1.474-7.344 2.465-9.174a2.24 2.24 0 00.222-.626 2.689 2.689 0 00.033-.593 1.99 1.99 0 00-.788-1.45 2.4 2.4 0 00-.815-.431 2.12 2.12 0 00-.786-.076c-.737.05-1.296.406-1.677 1.118-1.576 2.871-2.694 7.522-3.355 13.976-.965-2.44-1.779-5.31-2.414-8.69-.28-1.5-.966-2.211-2.084-2.135-.762.05-1.397.559-1.906 1.524L9.48 19.797c-.916-3.685-1.78-8.183-2.568-13.495-.177-1.321-.914-1.93-2.21-1.83zm48.968 1.83c1.805.381 3.152 1.347 4.066 2.947.814 1.373 1.22 3.025 1.22 5.007 0 2.617-.66 5.006-1.982 7.191-1.525 2.541-3.507 3.812-5.972 3.812a6.64 6.64 0 01-1.372-.153c-1.804-.38-3.151-1.346-4.066-2.947-.813-1.398-1.22-3.075-1.22-5.032 0-2.617.66-5.006 1.982-7.166 1.55-2.541 3.533-3.812 5.972-3.812a6.056 6.056 0 01.98.08c.129.021.26.045.392.073zM52.603 20.05c.94-.838 1.576-2.083 1.931-3.76.102-.585.178-1.22.178-1.88 0-.738-.152-1.526-.457-2.313-.381-.991-.89-1.525-1.5-1.652-.914-.178-1.804.33-2.642 1.575a8.215 8.215 0 00-1.347 3.024 8.841 8.841 0 00-.178 1.855c0 .737.152 1.525.457 2.313.382.99.89 1.525 1.5 1.651.635.128 1.321-.152 2.058-.813zm-10.8-10.8c-.914-1.6-2.287-2.566-4.066-2.947a6.66 6.66 0 00-1.372-.153c-2.44 0-4.422 1.27-5.972 3.812-1.321 2.16-1.982 4.549-1.982 7.166 0 1.957.407 3.634 1.22 5.032.915 1.6 2.261 2.566 4.066 2.947.286.06.563.103.831.127.185.017.365.026.541.026 2.465 0 4.447-1.27 5.972-3.812 1.321-2.185 1.982-4.574 1.982-7.191 0-1.982-.407-3.634-1.22-5.007zm-3.202 7.04c-.355 1.677-.99 2.922-1.931 3.76-.737.661-1.423.94-2.058.813-.61-.126-1.119-.66-1.5-1.651a6.45 6.45 0 01-.457-2.313c0-.3.011-.601.037-.897.028-.328.074-.65.14-.958a8.215 8.215 0 011.348-3.024c.838-1.245 1.728-1.753 2.642-1.575.61.127 1.119.66 1.5 1.652.305.787.457 1.575.457 2.312 0 .413-.02.816-.065 1.202a7.19 7.19 0 01-.113.679z" fill="#fff"/><path d="M68.588 9.02c-1.703 1.678-2.542 3.812-2.542 6.405 0 2.77.839 5.032 2.516 6.734 1.677 1.703 3.863 2.567 6.582 2.567.788 0 1.677-.127 2.643-.406v-4.118c-.89.255-1.652.382-2.313.382-1.347 0-2.414-.458-3.227-1.347-.813-.915-1.22-2.135-1.22-3.685 0-1.449.407-2.643 1.195-3.558.813-.94 1.804-1.398 3.024-1.398.787 0 1.626.127 2.54.381V6.86c-.838-.229-1.778-.33-2.77-.33-2.591-.026-4.726.813-6.428 2.49zm17.636-2.516c-2.338 0-4.168.788-5.49 2.338-1.32 1.55-1.956 3.736-1.956 6.532 0 3.024.66 5.337 1.957 6.938 1.296 1.6 3.201 2.414 5.692 2.414 2.414 0 4.27-.813 5.565-2.414 1.296-1.601 1.957-3.863 1.957-6.76s-.66-5.134-1.982-6.71c-1.347-1.55-3.253-2.338-5.743-2.338zM88.23 19.72c-.457.711-1.143 1.067-2.007 1.067-.814 0-1.424-.356-1.856-1.067-.431-.712-.635-2.135-.635-4.295 0-3.33.839-4.982 2.541-4.982 1.78 0 2.694 1.678 2.694 5.058-.025 2.084-.28 3.507-.737 4.219zm18.271-12.733l-.914 3.889a89.728 89.728 0 00-.661 3.05l-.508 2.693c-.483-2.694-1.144-5.896-1.982-9.632H96.54l-2.21 17.307h4.42l1.195-11.919 3.024 11.919h3.151l2.897-11.894 1.245 11.894h4.625L112.55 6.987h-6.049zm21.169 0l-.915 3.889a92.219 92.219 0 00-.661 3.05l-.508 2.693c-.483-2.694-1.144-5.896-1.982-9.632h-5.896l-2.211 17.307h4.422l1.194-11.919 3.024 11.919h3.152L130.16 12.4l1.245 11.894h4.625l-2.338-17.307h-6.022zm14.383 10.47h4.142v-3.583h-4.142v-3.176h4.777V7.013h-9.453v17.306h9.479v-3.684h-4.803v-3.177zm17.966-2.744c.483-.788.737-1.601.737-2.44 0-1.626-.635-2.922-1.906-3.863-1.27-.94-3.024-1.423-5.209-1.423h-5.438v17.307h4.676v-7.878h.076l3.786 7.878h4.93l-3.735-7.802c.889-.407 1.601-.991 2.083-1.779zm-7.166-.28v-4.117c1.118.026 1.906.204 2.389.56.483.355.711.915.711 1.728 0 1.194-1.041 1.804-3.1 1.83zm10.648-5.413c-1.703 1.678-2.541 3.812-2.541 6.405 0 2.77.838 5.032 2.515 6.734 1.678 1.703 3.863 2.567 6.582 2.567.788 0 1.677-.127 2.643-.406v-4.118c-.889.255-1.652.382-2.312.382-1.347 0-2.415-.458-3.228-1.347-.813-.915-1.22-2.135-1.22-3.685 0-1.449.407-2.643 1.195-3.558.813-.94 1.804-1.398 3.024-1.398.788 0 1.626.127 2.541.381V6.86c-.839-.229-1.779-.33-2.77-.33-2.567-.026-4.727.813-6.429 2.49zm15.171 11.564v-3.152h4.142V13.85h-4.142v-3.177h4.803V6.987h-9.454v17.307h9.479v-3.685h-4.828v-.025z" fill="#fff"/></svg>